<?xml version="1.0" encoding="utf-8" standalone="no"?>
<!DOCTYPE svg PUBLIC "-//W3C//DTD SVG 1.1//EN"
  "http://www.w3.org/Graphics/SVG/1.1/DTD/svg11.dtd">
<!-- Created with matplotlib (https://matplotlib.org/) -->
<svg height="258.86pt" version="1.1" viewBox="0 0 602 258.86" width="602pt" xmlns="http://www.w3.org/2000/svg" xmlns:xlink="http://www.w3.org/1999/xlink">
 <defs>
  <style type="text/css">
*{stroke-linecap:butt;stroke-linejoin:round;}
  </style>
 </defs>
 <g id="figure_1">
  <g id="patch_1">
   <path d="M 0 258.86 
L 602 258.86 
L 602 0 
L 0 0 
z
" style="fill:#ffffff;"/>
  </g>
  <g id="axes_1">
   <g id="line2d_1">
    <path clip-path="url(#p59e0d4b0b1)" d="M 217.623 203.777 
L 217.623 67.424 
" style="fill:none;stroke:#000000;stroke-linecap:square;"/>
   </g>
   <g id="line2d_2">
    <path clip-path="url(#p59e0d4b0b1)" d="M 308.525 203.777 
L 308.525 158.326 
" style="fill:none;stroke:#000000;stroke-linecap:square;"/>
   </g>
   <g id="line2d_3">
    <path clip-path="url(#p59e0d4b0b1)" d="M 308.525 112.875 
L 308.525 67.424 
" style="fill:none;stroke:#000000;stroke-linecap:square;"/>
   </g>
   <g id="line2d_4">
    <path clip-path="url(#p59e0d4b0b1)" d="M 353.976 158.326 
L 353.976 112.875 
" style="fill:none;stroke:#000000;stroke-linecap:square;"/>
   </g>
   <g id="line2d_5">
    <path clip-path="url(#p59e0d4b0b1)" d="M 399.427 112.875 
L 399.427 67.424 
" style="fill:none;stroke:#000000;stroke-linecap:square;"/>
   </g>
   <g id="line2d_6">
    <path clip-path="url(#p59e0d4b0b1)" d="M 444.878 158.326 
L 444.878 112.875 
" style="fill:none;stroke:#000000;stroke-linecap:square;"/>
   </g>
   <g id="line2d_7">
    <path clip-path="url(#p59e0d4b0b1)" d="M 490.329 203.777 
L 490.329 158.326 
" style="fill:none;stroke:#000000;stroke-linecap:square;"/>
   </g>
   <g id="line2d_8">
    <path clip-path="url(#p59e0d4b0b1)" d="M 172.172 67.424 
L 535.78 67.424 
" style="fill:none;stroke:#000000;stroke-linecap:square;"/>
   </g>
   <g id="line2d_9">
    <path clip-path="url(#p59e0d4b0b1)" d="M 172.172 112.875 
L 535.78 112.875 
" style="fill:none;stroke:#000000;stroke-linecap:square;"/>
   </g>
   <g id="line2d_10">
    <path clip-path="url(#p59e0d4b0b1)" d="M 172.172 158.326 
L 535.78 158.326 
" style="fill:none;stroke:#000000;stroke-linecap:square;"/>
   </g>
   <g id="line2d_11">
    <path clip-path="url(#p59e0d4b0b1)" d="M 172.172 203.777 
L 535.78 203.777 
" style="fill:none;stroke:#000000;stroke-linecap:square;"/>
   </g>
   <g id="patch_2">
    <path clip-path="url(#p59e0d4b0b1)" d="M 254.211055 226.5025 
L 271.936945 226.5025 
L 271.936945 44.6985 
L 254.211055 44.6985 
z
" style="fill:#bdbdbd;opacity:0.6;"/>
   </g>
   <g id="patch_3">
    <path clip-path="url(#p59e0d4b0b1)" d="M 217.623 71.855473 
C 218.79824 71.855473 219.925504 71.388545 220.756524 70.557524 
C 221.587545 69.726504 222.054473 68.59924 222.054473 67.424 
C 222.054473 66.24876 221.587545 65.121496 220.756524 64.290476 
C 219.925504 63.459455 218.79824 62.992528 217.623 62.992528 
C 216.44776 62.992528 215.320496 63.459455 214.489476 64.290476 
C 213.658455 65.121496 213.191528 66.24876 213.191528 67.424 
C 213.191528 68.59924 213.658455 69.726504 214.489476 70.557524 
C 215.320496 71.388545 216.44776 71.855473 217.623 71.855473 
z
" style="stroke:#000000;stroke-linejoin:miter;stroke-width:1.5;"/>
   </g>
   <g id="patch_4">
    <path clip-path="url(#p59e0d4b0b1)" d="M 217.623 214.117103 
C 220.365227 214.117103 222.995509 213.027604 224.934557 211.088557 
C 226.873604 209.149509 227.963103 206.519227 227.963103 203.777 
C 227.963103 201.034773 226.873604 198.404491 224.934557 196.465443 
C 222.995509 194.526396 220.365227 193.436898 217.623 193.436898 
C 214.880773 193.436898 212.250491 194.526396 210.311443 196.465443 
C 208.372396 198.404491 207.282898 201.034773 207.282898 203.777 
C 207.282898 206.519227 208.372396 209.149509 210.311443 211.088557 
C 212.250491 213.027604 214.880773 214.117103 217.623 214.117103 
z
" style="fill:#ffffff;stroke:#000000;stroke-linejoin:miter;stroke-width:1.5;"/>
   </g>
   <g id="patch_5">
    <path clip-path="url(#p59e0d4b0b1)" d="M 308.525 162.757473 
C 309.70024 162.757473 310.827504 162.290545 311.658524 161.459524 
C 312.489545 160.628504 312.956473 159.50124 312.956473 158.326 
C 312.956473 157.15076 312.489545 156.023496 311.658524 155.192476 
C 310.827504 154.361455 309.70024 153.894528 308.525 153.894528 
C 307.34976 153.894528 306.222496 154.361455 305.391476 155.192476 
C 304.560455 156.023496 304.093528 157.15076 304.093528 158.326 
C 304.093528 159.50124 304.560455 160.628504 305.391476 161.459524 
C 306.222496 162.290545 307.34976 162.757473 308.525 162.757473 
z
" style="stroke:#000000;stroke-linejoin:miter;stroke-width:1.5;"/>
   </g>
   <g id="patch_6">
    <path clip-path="url(#p59e0d4b0b1)" d="M 308.525 214.117103 
C 311.267227 214.117103 313.897509 213.027604 315.836557 211.088557 
C 317.775604 209.149509 318.865103 206.519227 318.865103 203.777 
C 318.865103 201.034773 317.775604 198.404491 315.836557 196.465443 
C 313.897509 194.526396 311.267227 193.436898 308.525 193.436898 
C 305.782773 193.436898 303.152491 194.526396 301.213443 196.465443 
C 299.274396 198.404491 298.184898 201.034773 298.184898 203.777 
C 298.184898 206.519227 299.274396 209.149509 301.213443 211.088557 
C 303.152491 213.027604 305.782773 214.117103 308.525 214.117103 
z
" style="fill:#ffffff;stroke:#000000;stroke-linejoin:miter;stroke-width:1.5;"/>
   </g>
   <g id="patch_7">
    <path clip-path="url(#p59e0d4b0b1)" d="M 308.525 71.855473 
C 309.70024 71.855473 310.827504 71.388545 311.658524 70.557524 
C 312.489545 69.726504 312.956473 68.59924 312.956473 67.424 
C 312.956473 66.24876 312.489545 65.121496 311.658524 64.290476 
C 310.827504 63.459455 309.70024 62.992528 308.525 62.992528 
C 307.34976 62.992528 306.222496 63.459455 305.391476 64.290476 
C 304.560455 65.121496 304.093528 66.24876 304.093528 67.424 
C 304.093528 68.59924 304.560455 69.726504 305.391476 70.557524 
C 306.222496 71.388545 307.34976 71.855473 308.525 71.855473 
z
" style="stroke:#000000;stroke-linejoin:miter;stroke-width:1.5;"/>
   </g>
   <g id="patch_8">
    <path clip-path="url(#p59e0d4b0b1)" d="M 308.525 123.215103 
C 311.267227 123.215103 313.897509 122.125604 315.836557 120.186557 
C 317.775604 118.247509 318.865103 115.617227 318.865103 112.875 
C 318.865103 110.132773 317.775604 107.502491 315.836557 105.563443 
C 313.897509 103.624396 311.267227 102.534898 308.525 102.534898 
C 305.782773 102.534898 303.152491 103.624396 301.213443 105.563443 
C 299.274396 107.502491 298.184898 110.132773 298.184898 112.875 
C 298.184898 115.617227 299.274396 118.247509 301.213443 120.186557 
C 303.152491 122.125604 305.782773 123.215103 308.525 123.215103 
z
" style="fill:#ffffff;stroke:#000000;stroke-linejoin:miter;stroke-width:1.5;"/>
   </g>
   <g id="patch_9">
    <path clip-path="url(#p59e0d4b0b1)" d="M 353.976 117.306473 
C 355.15124 117.306473 356.278504 116.839545 357.109524 116.008524 
C 357.940545 115.177504 358.407472 114.05024 358.407472 112.875 
C 358.407472 111.69976 357.940545 110.572496 357.109524 109.741476 
C 356.278504 108.910455 355.15124 108.443528 353.976 108.443528 
C 352.80076 108.443528 351.673496 108.910455 350.842476 109.741476 
C 350.011455 110.572496 349.544528 111.69976 349.544528 112.875 
C 349.544528 114.05024 350.011455 115.177504 350.842476 116.008524 
C 351.673496 116.839545 352.80076 117.306473 353.976 117.306473 
z
" style="stroke:#000000;stroke-linejoin:miter;stroke-width:1.5;"/>
   </g>
   <g id="patch_10">
    <path clip-path="url(#p59e0d4b0b1)" d="M 353.976 168.666103 
C 356.718227 168.666103 359.348509 167.576604 361.287557 165.637557 
C 363.226604 163.698509 364.316102 161.068227 364.316102 158.326 
C 364.316102 155.583773 363.226604 152.953491 361.287557 151.014443 
C 359.348509 149.075396 356.718227 147.985898 353.976 147.985898 
C 351.233773 147.985898 348.603491 149.075396 346.664443 151.014443 
C 344.725396 152.953491 343.635897 155.583773 343.635897 158.326 
C 343.635897 161.068227 344.725396 163.698509 346.664443 165.637557 
C 348.603491 167.576604 351.233773 168.666103 353.976 168.666103 
z
" style="fill:#ffffff;stroke:#000000;stroke-linejoin:miter;stroke-width:1.5;"/>
   </g>
   <g id="patch_11">
    <path clip-path="url(#p59e0d4b0b1)" d="M 399.427 71.855473 
C 400.60224 71.855473 401.729504 71.388545 402.560524 70.557524 
C 403.391545 69.726504 403.858473 68.59924 403.858473 67.424 
C 403.858473 66.24876 403.391545 65.121496 402.560524 64.290476 
C 401.729504 63.459455 400.60224 62.992528 399.427 62.992528 
C 398.25176 62.992528 397.124496 63.459455 396.293476 64.290476 
C 395.462455 65.121496 394.995528 66.24876 394.995528 67.424 
C 394.995528 68.59924 395.462455 69.726504 396.293476 70.557524 
C 397.124496 71.388545 398.25176 71.855473 399.427 71.855473 
z
" style="stroke:#000000;stroke-linejoin:miter;stroke-width:1.5;"/>
   </g>
   <g id="patch_12">
    <path clip-path="url(#p59e0d4b0b1)" d="M 399.427 123.215103 
C 402.169227 123.215103 404.799509 122.125604 406.738557 120.186557 
C 408.677604 118.247509 409.767103 115.617227 409.767103 112.875 
C 409.767103 110.132773 408.677604 107.502491 406.738557 105.563443 
C 404.799509 103.624396 402.169227 102.534898 399.427 102.534898 
C 396.684773 102.534898 394.054491 103.624396 392.115443 105.563443 
C 390.176396 107.502491 389.086898 110.132773 389.086898 112.875 
C 389.086898 115.617227 390.176396 118.247509 392.115443 120.186557 
C 394.054491 122.125604 396.684773 123.215103 399.427 123.215103 
z
" style="fill:#ffffff;stroke:#000000;stroke-linejoin:miter;stroke-width:1.5;"/>
   </g>
   <g id="patch_13">
    <path clip-path="url(#p59e0d4b0b1)" d="M 444.878 117.306473 
C 446.05324 117.306473 447.180504 116.839545 448.011524 116.008524 
C 448.842545 115.177504 449.309473 114.05024 449.309473 112.875 
C 449.309473 111.69976 448.842545 110.572496 448.011524 109.741476 
C 447.180504 108.910455 446.05324 108.443528 444.878 108.443528 
C 443.70276 108.443528 442.575496 108.910455 441.744476 109.741476 
C 440.913455 110.572496 440.446528 111.69976 440.446528 112.875 
C 440.446528 114.05024 440.913455 115.177504 441.744476 116.008524 
C 442.575496 116.839545 443.70276 117.306473 444.878 117.306473 
z
" style="stroke:#000000;stroke-linejoin:miter;stroke-width:1.5;"/>
   </g>
   <g id="patch_14">
    <path clip-path="url(#p59e0d4b0b1)" d="M 444.878 168.666103 
C 447.620227 168.666103 450.250509 167.576604 452.189557 165.637557 
C 454.128604 163.698509 455.218103 161.068227 455.218103 158.326 
C 455.218103 155.583773 454.128604 152.953491 452.189557 151.014443 
C 450.250509 149.075396 447.620227 147.985898 444.878 147.985898 
C 442.135773 147.985898 439.505491 149.075396 437.566443 151.014443 
C 435.627396 152.953491 434.537898 155.583773 434.537898 158.326 
C 434.537898 161.068227 435.627396 163.698509 437.566443 165.637557 
C 439.505491 167.576604 442.135773 168.666103 444.878 168.666103 
z
" style="fill:#ffffff;stroke:#000000;stroke-linejoin:miter;stroke-width:1.5;"/>
   </g>
   <g id="patch_15">
    <path clip-path="url(#p59e0d4b0b1)" d="M 490.329 162.757473 
C 491.50424 162.757473 492.631504 162.290545 493.462524 161.459524 
C 494.293545 160.628504 494.760472 159.50124 494.760472 158.326 
C 494.760472 157.15076 494.293545 156.023496 493.462524 155.192476 
C 492.631504 154.361455 491.50424 153.894528 490.329 153.894528 
C 489.15376 153.894528 488.026496 154.361455 487.195476 155.192476 
C 486.364455 156.023496 485.897528 157.15076 485.897528 158.326 
C 485.897528 159.50124 486.364455 160.628504 487.195476 161.459524 
C 488.026496 162.290545 489.15376 162.757473 490.329 162.757473 
z
" style="stroke:#000000;stroke-linejoin:miter;stroke-width:1.5;"/>
   </g>
   <g id="patch_16">
    <path clip-path="url(#p59e0d4b0b1)" d="M 490.329 214.117103 
C 493.071227 214.117103 495.701509 213.027604 497.640557 211.088557 
C 499.579604 209.149509 500.669103 206.519227 500.669103 203.777 
C 500.669103 201.034773 499.579604 198.404491 497.640557 196.465443 
C 495.701509 194.526396 493.071227 193.436898 490.329 193.436898 
C 487.586773 193.436898 484.956491 194.526396 483.017443 196.465443 
C 481.078396 198.404491 479.988898 201.034773 479.988898 203.777 
C 479.988898 206.519227 481.078396 209.149509 483.017443 211.088557 
C 484.956491 213.027604 487.586773 214.117103 490.329 214.117103 
z
" style="fill:#ffffff;stroke:#000000;stroke-linejoin:miter;stroke-width:1.5;"/>
   </g>
   <g id="line2d_12">
    <path clip-path="url(#p59e0d4b0b1)" d="M 217.623 214.117103 
L 217.623 193.436898 
" style="fill:none;stroke:#000000;stroke-linecap:square;"/>
   </g>
   <g id="line2d_13">
    <path clip-path="url(#p59e0d4b0b1)" d="M 207.282898 203.777 
L 227.963103 203.777 
" style="fill:none;stroke:#000000;stroke-linecap:square;"/>
   </g>
   <g id="line2d_14">
    <path clip-path="url(#p59e0d4b0b1)" d="M 308.525 214.117103 
L 308.525 193.436898 
" style="fill:none;stroke:#000000;stroke-linecap:square;"/>
   </g>
   <g id="line2d_15">
    <path clip-path="url(#p59e0d4b0b1)" d="M 298.184898 203.777 
L 318.865103 203.777 
" style="fill:none;stroke:#000000;stroke-linecap:square;"/>
   </g>
   <g id="line2d_16">
    <path clip-path="url(#p59e0d4b0b1)" d="M 308.525 123.215103 
L 308.525 102.534898 
" style="fill:none;stroke:#000000;stroke-linecap:square;"/>
   </g>
   <g id="line2d_17">
    <path clip-path="url(#p59e0d4b0b1)" d="M 298.184898 112.875 
L 318.865103 112.875 
" style="fill:none;stroke:#000000;stroke-linecap:square;"/>
   </g>
   <g id="line2d_18">
    <path clip-path="url(#p59e0d4b0b1)" d="M 353.976 168.666103 
L 353.976 147.985898 
" style="fill:none;stroke:#000000;stroke-linecap:square;"/>
   </g>
   <g id="line2d_19">
    <path clip-path="url(#p59e0d4b0b1)" d="M 343.635898 158.326 
L 364.316103 158.326 
" style="fill:none;stroke:#000000;stroke-linecap:square;"/>
   </g>
   <g id="line2d_20">
    <path clip-path="url(#p59e0d4b0b1)" d="M 399.427 123.215103 
L 399.427 102.534898 
" style="fill:none;stroke:#000000;stroke-linecap:square;"/>
   </g>
   <g id="line2d_21">
    <path clip-path="url(#p59e0d4b0b1)" d="M 389.086898 112.875 
L 409.767103 112.875 
" style="fill:none;stroke:#000000;stroke-linecap:square;"/>
   </g>
   <g id="line2d_22">
    <path clip-path="url(#p59e0d4b0b1)" d="M 444.878 168.666103 
L 444.878 147.985898 
" style="fill:none;stroke:#000000;stroke-linecap:square;"/>
   </g>
   <g id="line2d_23">
    <path clip-path="url(#p59e0d4b0b1)" d="M 434.537898 158.326 
L 455.218103 158.326 
" style="fill:none;stroke:#000000;stroke-linecap:square;"/>
   </g>
   <g id="line2d_24">
    <path clip-path="url(#p59e0d4b0b1)" d="M 490.329 214.117103 
L 490.329 193.436898 
" style="fill:none;stroke:#000000;stroke-linecap:square;"/>
   </g>
   <g id="line2d_25">
    <path clip-path="url(#p59e0d4b0b1)" d="M 479.988898 203.777 
L 500.669103 203.777 
" style="fill:none;stroke:#000000;stroke-linecap:square;"/>
   </g>
   <g id="line2d_26">
    <path clip-path="url(#p59e0d4b0b1)" d="M 263.074 44.6985 
L 263.074 90.1495 
" style="fill:none;stroke:#000000;stroke-dasharray:3.7,1.6;stroke-dashoffset:0;"/>
   </g>
   <g id="text_1">
    <g clip-path="url(#p59e0d4b0b1)">
     <!-- $q_{0}$ : $\left|0\right\rangle$ -->
     <defs>
      <path d="M 41.703125 8.203125 
Q 38.09375 3.46875 33.171875 1.015625 
Q 28.265625 -1.421875 22.3125 -1.421875 
Q 14.015625 -1.421875 9.296875 4.171875 
Q 4.59375 9.765625 4.59375 19.578125 
Q 4.59375 27.484375 7.5 34.859375 
Q 10.40625 42.234375 15.828125 48.09375 
Q 19.34375 51.90625 23.90625 53.953125 
Q 28.46875 56 33.5 56 
Q 39.546875 56 43.453125 53.609375 
Q 47.359375 51.21875 49.125 46.390625 
L 50.6875 54.59375 
L 59.71875 54.59375 
L 45.125 -20.609375 
L 36.078125 -20.609375 
z
M 13.921875 20.90625 
Q 13.921875 13.671875 16.9375 9.890625 
Q 19.96875 6.109375 25.6875 6.109375 
Q 34.1875 6.109375 40.1875 14.234375 
Q 46.1875 22.359375 46.1875 33.984375 
Q 46.1875 41.015625 43.078125 44.75 
Q 39.984375 48.484375 34.1875 48.484375 
Q 29.9375 48.484375 26.3125 46.5 
Q 22.703125 44.53125 20.015625 40.71875 
Q 17.1875 36.71875 15.546875 31.34375 
Q 13.921875 25.984375 13.921875 20.90625 
z
" id="DejaVuSans-Oblique-113"/>
      <path d="M 31.78125 66.40625 
Q 24.171875 66.40625 20.328125 58.90625 
Q 16.5 51.421875 16.5 36.375 
Q 16.5 21.390625 20.328125 13.890625 
Q 24.171875 6.390625 31.78125 6.390625 
Q 39.453125 6.390625 43.28125 13.890625 
Q 47.125 21.390625 47.125 36.375 
Q 47.125 51.421875 43.28125 58.90625 
Q 39.453125 66.40625 31.78125 66.40625 
z
M 31.78125 74.21875 
Q 44.046875 74.21875 50.515625 64.515625 
Q 56.984375 54.828125 56.984375 36.375 
Q 56.984375 17.96875 50.515625 8.265625 
Q 44.046875 -1.421875 31.78125 -1.421875 
Q 19.53125 -1.421875 13.0625 8.265625 
Q 6.59375 17.96875 6.59375 36.375 
Q 6.59375 54.828125 13.0625 64.515625 
Q 19.53125 74.21875 31.78125 74.21875 
z
" id="DejaVuSans-48"/>
      <path id="DejaVuSans-32"/>
      <path d="M 11.71875 12.40625 
L 22.015625 12.40625 
L 22.015625 0 
L 11.71875 0 
z
M 11.71875 51.703125 
L 22.015625 51.703125 
L 22.015625 39.3125 
L 11.71875 39.3125 
z
" id="DejaVuSans-58"/>
      <path d="M 21 76.421875 
L 21 -23.578125 
L 12.703125 -23.578125 
L 12.703125 76.421875 
z
" id="DejaVuSans-124"/>
      <path d="M 30.078125 31.34375 
L 16.3125 -13.1875 
L 8.015625 -13.1875 
L 21.78125 31.34375 
L 8.015625 75.875 
L 16.3125 75.875 
z
" id="DejaVuSans-10217"/>
     </defs>
     <g transform="translate(104.5965 70.869)scale(0.13 -0.13)">
      <use transform="translate(0 0.578125)" xlink:href="#DejaVuSans-Oblique-113"/>
      <use transform="translate(63.476562 -15.828125)scale(0.7)" xlink:href="#DejaVuSans-48"/>
      <use transform="translate(110.74707 0.578125)" xlink:href="#DejaVuSans-32"/>
      <use transform="translate(142.53418 0.578125)" xlink:href="#DejaVuSans-58"/>
      <use transform="translate(176.225586 0.578125)" xlink:href="#DejaVuSans-32"/>
      <use transform="translate(208.012695 0.578125)" xlink:href="#DejaVuSans-124"/>
      <use transform="translate(241.704102 0.578125)" xlink:href="#DejaVuSans-48"/>
      <use transform="translate(305.327148 0.578125)" xlink:href="#DejaVuSans-10217"/>
     </g>
    </g>
   </g>
   <g id="text_2">
    <g clip-path="url(#p59e0d4b0b1)">
     <!-- $q_{1}$ : $\left|0\right\rangle$ -->
     <defs>
      <path d="M 12.40625 8.296875 
L 28.515625 8.296875 
L 28.515625 63.921875 
L 10.984375 60.40625 
L 10.984375 69.390625 
L 28.421875 72.90625 
L 38.28125 72.90625 
L 38.28125 8.296875 
L 54.390625 8.296875 
L 54.390625 0 
L 12.40625 0 
z
" id="DejaVuSans-49"/>
     </defs>
     <g transform="translate(104.5965 116.32)scale(0.13 -0.13)">
      <use transform="translate(0 0.578125)" xlink:href="#DejaVuSans-Oblique-113"/>
      <use transform="translate(63.476562 -15.828125)scale(0.7)" xlink:href="#DejaVuSans-49"/>
      <use transform="translate(110.74707 0.578125)" xlink:href="#DejaVuSans-32"/>
      <use transform="translate(142.53418 0.578125)" xlink:href="#DejaVuSans-58"/>
      <use transform="translate(176.225586 0.578125)" xlink:href="#DejaVuSans-32"/>
      <use transform="translate(208.012695 0.578125)" xlink:href="#DejaVuSans-124"/>
      <use transform="translate(241.704102 0.578125)" xlink:href="#DejaVuSans-48"/>
      <use transform="translate(305.327148 0.578125)" xlink:href="#DejaVuSans-10217"/>
     </g>
    </g>
   </g>
   <g id="text_3">
    <g clip-path="url(#p59e0d4b0b1)">
     <!-- $q_{2}$ : $\left|0\right\rangle$ -->
     <defs>
      <path d="M 19.1875 8.296875 
L 53.609375 8.296875 
L 53.609375 0 
L 7.328125 0 
L 7.328125 8.296875 
Q 12.9375 14.109375 22.625 23.890625 
Q 32.328125 33.6875 34.8125 36.53125 
Q 39.546875 41.84375 41.421875 45.53125 
Q 43.3125 49.21875 43.3125 52.78125 
Q 43.3125 58.59375 39.234375 62.25 
Q 35.15625 65.921875 28.609375 65.921875 
Q 23.96875 65.921875 18.8125 64.3125 
Q 13.671875 62.703125 7.8125 59.421875 
L 7.8125 69.390625 
Q 13.765625 71.78125 18.9375 73 
Q 24.125 74.21875 28.421875 74.21875 
Q 39.75 74.21875 46.484375 68.546875 
Q 53.21875 62.890625 53.21875 53.421875 
Q 53.21875 48.921875 51.53125 44.890625 
Q 49.859375 40.875 45.40625 35.40625 
Q 44.1875 33.984375 37.640625 27.21875 
Q 31.109375 20.453125 19.1875 8.296875 
z
" id="DejaVuSans-50"/>
     </defs>
     <g transform="translate(104.5965 161.771)scale(0.13 -0.13)">
      <use transform="translate(0 0.578125)" xlink:href="#DejaVuSans-Oblique-113"/>
      <use transform="translate(63.476562 -15.828125)scale(0.7)" xlink:href="#DejaVuSans-50"/>
      <use transform="translate(110.74707 0.578125)" xlink:href="#DejaVuSans-32"/>
      <use transform="translate(142.53418 0.578125)" xlink:href="#DejaVuSans-58"/>
      <use transform="translate(176.225586 0.578125)" xlink:href="#DejaVuSans-32"/>
      <use transform="translate(208.012695 0.578125)" xlink:href="#DejaVuSans-124"/>
      <use transform="translate(241.704102 0.578125)" xlink:href="#DejaVuSans-48"/>
      <use transform="translate(305.327148 0.578125)" xlink:href="#DejaVuSans-10217"/>
     </g>
    </g>
   </g>
   <g id="text_4">
    <g clip-path="url(#p59e0d4b0b1)">
     <!-- $q_{3}$ : $\left|0\right\rangle$ -->
     <defs>
      <path d="M 40.578125 39.3125 
Q 47.65625 37.796875 51.625 33 
Q 55.609375 28.21875 55.609375 21.1875 
Q 55.609375 10.40625 48.1875 4.484375 
Q 40.765625 -1.421875 27.09375 -1.421875 
Q 22.515625 -1.421875 17.65625 -0.515625 
Q 12.796875 0.390625 7.625 2.203125 
L 7.625 11.71875 
Q 11.71875 9.328125 16.59375 8.109375 
Q 21.484375 6.890625 26.8125 6.890625 
Q 36.078125 6.890625 40.9375 10.546875 
Q 45.796875 14.203125 45.796875 21.1875 
Q 45.796875 27.640625 41.28125 31.265625 
Q 36.765625 34.90625 28.71875 34.90625 
L 20.21875 34.90625 
L 20.21875 43.015625 
L 29.109375 43.015625 
Q 36.375 43.015625 40.234375 45.921875 
Q 44.09375 48.828125 44.09375 54.296875 
Q 44.09375 59.90625 40.109375 62.90625 
Q 36.140625 65.921875 28.71875 65.921875 
Q 24.65625 65.921875 20.015625 65.03125 
Q 15.375 64.15625 9.8125 62.3125 
L 9.8125 71.09375 
Q 15.4375 72.65625 20.34375 73.4375 
Q 25.25 74.21875 29.59375 74.21875 
Q 40.828125 74.21875 47.359375 69.109375 
Q 53.90625 64.015625 53.90625 55.328125 
Q 53.90625 49.265625 50.4375 45.09375 
Q 46.96875 40.921875 40.578125 39.3125 
z
" id="DejaVuSans-51"/>
     </defs>
     <g transform="translate(104.5965 207.222)scale(0.13 -0.13)">
      <use transform="translate(0 0.578125)" xlink:href="#DejaVuSans-Oblique-113"/>
      <use transform="translate(63.476562 -15.828125)scale(0.7)" xlink:href="#DejaVuSans-51"/>
      <use transform="translate(110.74707 0.578125)" xlink:href="#DejaVuSans-32"/>
      <use transform="translate(142.53418 0.578125)" xlink:href="#DejaVuSans-58"/>
      <use transform="translate(176.225586 0.578125)" xlink:href="#DejaVuSans-32"/>
      <use transform="translate(208.012695 0.578125)" xlink:href="#DejaVuSans-124"/>
      <use transform="translate(241.704102 0.578125)" xlink:href="#DejaVuSans-48"/>
      <use transform="translate(305.327148 0.578125)" xlink:href="#DejaVuSans-10217"/>
     </g>
    </g>
   </g>
  </g>
 </g>
 <defs>
  <clipPath id="p59e0d4b0b1">
   <rect height="195.4393" width="454.51" x="81.27" y="31.0632"/>
  </clipPath>
 </defs>
</svg>
