<?xml version="1.0" encoding="utf-8" standalone="no"?>
<!DOCTYPE svg PUBLIC "-//W3C//DTD SVG 1.1//EN"
  "http://www.w3.org/Graphics/SVG/1.1/DTD/svg11.dtd">
<!-- Created with matplotlib (https://matplotlib.org/) -->
<svg height="138.46pt" version="1.1" viewBox="0 0 361.2 138.46" width="361.2pt" xmlns="http://www.w3.org/2000/svg" xmlns:xlink="http://www.w3.org/1999/xlink">
 <defs>
  <style type="text/css">
*{stroke-linecap:butt;stroke-linejoin:round;}
  </style>
 </defs>
 <g id="figure_1">
  <g id="patch_1">
   <path d="M 0 138.46 
L 361.2 138.46 
L 361.2 0 
L 0 0 
z
" style="fill:#ffffff;"/>
  </g>
  <g id="axes_1">
   <g id="line2d_1">
    <path clip-path="url(#p0bcfb9b817)" d="M 185.115 98.427 
L 185.115 52.976 
" style="fill:none;stroke:#000000;stroke-linecap:square;"/>
   </g>
   <g id="line2d_2">
    <path clip-path="url(#p0bcfb9b817)" d="M 230.566 98.427 
L 230.566 52.976 
" style="fill:none;stroke:#000000;stroke-linecap:square;"/>
   </g>
   <g id="line2d_3">
    <path clip-path="url(#p0bcfb9b817)" d="M 276.017 98.427 
L 276.017 52.976 
" style="fill:none;stroke:#000000;stroke-linecap:square;"/>
   </g>
   <g id="line2d_4">
    <path clip-path="url(#p0bcfb9b817)" d="M 139.664 52.976 
L 321.468 52.976 
" style="fill:none;stroke:#000000;stroke-linecap:square;"/>
   </g>
   <g id="line2d_5">
    <path clip-path="url(#p0bcfb9b817)" d="M 139.664 98.427 
L 321.468 98.427 
" style="fill:none;stroke:#000000;stroke-linecap:square;"/>
   </g>
   <g id="patch_2">
    <path clip-path="url(#p0bcfb9b817)" d="M 185.115 102.858472 
C 186.29024 102.858472 187.417504 102.391545 188.248524 101.560524 
C 189.079545 100.729504 189.546472 99.60224 189.546472 98.427 
C 189.546472 97.25176 189.079545 96.124496 188.248524 95.293476 
C 187.417504 94.462455 186.29024 93.995527 185.115 93.995527 
C 183.93976 93.995527 182.812496 94.462455 181.981476 95.293476 
C 181.150455 96.124496 180.683527 97.25176 180.683527 98.427 
C 180.683527 99.60224 181.150455 100.729504 181.981476 101.560524 
C 182.812496 102.391545 183.93976 102.858472 185.115 102.858472 
z
" style="stroke:#000000;stroke-linejoin:miter;stroke-width:1.5;"/>
   </g>
   <g id="patch_3">
    <path clip-path="url(#p0bcfb9b817)" d="M 185.115 63.316102 
C 187.857227 63.316102 190.487509 62.226604 192.426557 60.287557 
C 194.365604 58.348509 195.455102 55.718227 195.455102 52.976 
C 195.455102 50.233773 194.365604 47.603491 192.426557 45.664443 
C 190.487509 43.725396 187.857227 42.635897 185.115 42.635897 
C 182.372773 42.635897 179.742491 43.725396 177.803443 45.664443 
C 175.864396 47.603491 174.774897 50.233773 174.774897 52.976 
C 174.774897 55.718227 175.864396 58.348509 177.803443 60.287557 
C 179.742491 62.226604 182.372773 63.316102 185.115 63.316102 
z
" style="fill:#ffffff;stroke:#000000;stroke-linejoin:miter;stroke-width:1.5;"/>
   </g>
   <g id="patch_4">
    <path clip-path="url(#p0bcfb9b817)" d="M 230.566 57.407472 
C 231.74124 57.407472 232.868504 56.940545 233.699524 56.109524 
C 234.530545 55.278504 234.997472 54.15124 234.997472 52.976 
C 234.997472 51.80076 234.530545 50.673496 233.699524 49.842476 
C 232.868504 49.011455 231.74124 48.544528 230.566 48.544528 
C 229.39076 48.544528 228.263496 49.011455 227.432476 49.842476 
C 226.601455 50.673496 226.134527 51.80076 226.134527 52.976 
C 226.134527 54.15124 226.601455 55.278504 227.432476 56.109524 
C 228.263496 56.940545 229.39076 57.407472 230.566 57.407472 
z
" style="stroke:#000000;stroke-linejoin:miter;stroke-width:1.5;"/>
   </g>
   <g id="patch_5">
    <path clip-path="url(#p0bcfb9b817)" d="M 230.566 108.767102 
C 233.308227 108.767102 235.938509 107.677604 237.877557 105.738557 
C 239.816604 103.799509 240.906102 101.169227 240.906102 98.427 
C 240.906102 95.684773 239.816604 93.054491 237.877557 91.115443 
C 235.938509 89.176396 233.308227 88.086897 230.566 88.086897 
C 227.823773 88.086897 225.193491 89.176396 223.254443 91.115443 
C 221.315396 93.054491 220.225897 95.684773 220.225897 98.427 
C 220.225897 101.169227 221.315396 103.799509 223.254443 105.738557 
C 225.193491 107.677604 227.823773 108.767102 230.566 108.767102 
z
" style="fill:#ffffff;stroke:#000000;stroke-linejoin:miter;stroke-width:1.5;"/>
   </g>
   <g id="patch_6">
    <path clip-path="url(#p0bcfb9b817)" d="M 276.017 102.858472 
C 277.19224 102.858472 278.319504 102.391545 279.150524 101.560524 
C 279.981545 100.729504 280.448472 99.60224 280.448472 98.427 
C 280.448472 97.25176 279.981545 96.124496 279.150524 95.293476 
C 278.319504 94.462455 277.19224 93.995527 276.017 93.995527 
C 274.84176 93.995527 273.714496 94.462455 272.883476 95.293476 
C 272.052455 96.124496 271.585527 97.25176 271.585527 98.427 
C 271.585527 99.60224 272.052455 100.729504 272.883476 101.560524 
C 273.714496 102.391545 274.84176 102.858472 276.017 102.858472 
z
" style="stroke:#000000;stroke-linejoin:miter;stroke-width:1.5;"/>
   </g>
   <g id="patch_7">
    <path clip-path="url(#p0bcfb9b817)" d="M 276.017 63.316102 
C 278.759227 63.316102 281.389509 62.226604 283.328557 60.287557 
C 285.267604 58.348509 286.357102 55.718227 286.357102 52.976 
C 286.357102 50.233773 285.267604 47.603491 283.328557 45.664443 
C 281.389509 43.725396 278.759227 42.635897 276.017 42.635897 
C 273.274773 42.635897 270.644491 43.725396 268.705443 45.664443 
C 266.766396 47.603491 265.676897 50.233773 265.676897 52.976 
C 265.676897 55.718227 266.766396 58.348509 268.705443 60.287557 
C 270.644491 62.226604 273.274773 63.316102 276.017 63.316102 
z
" style="fill:#ffffff;stroke:#000000;stroke-linejoin:miter;stroke-width:1.5;"/>
   </g>
   <g id="line2d_6">
    <path clip-path="url(#p0bcfb9b817)" d="M 185.115 63.316102 
L 185.115 42.635897 
" style="fill:none;stroke:#000000;stroke-linecap:square;"/>
   </g>
   <g id="line2d_7">
    <path clip-path="url(#p0bcfb9b817)" d="M 174.774897 52.976 
L 195.455102 52.976 
" style="fill:none;stroke:#000000;stroke-linecap:square;"/>
   </g>
   <g id="line2d_8">
    <path clip-path="url(#p0bcfb9b817)" d="M 230.566 108.767102 
L 230.566 88.086897 
" style="fill:none;stroke:#000000;stroke-linecap:square;"/>
   </g>
   <g id="line2d_9">
    <path clip-path="url(#p0bcfb9b817)" d="M 220.225897 98.427 
L 240.906102 98.427 
" style="fill:none;stroke:#000000;stroke-linecap:square;"/>
   </g>
   <g id="line2d_10">
    <path clip-path="url(#p0bcfb9b817)" d="M 276.017 63.316102 
L 276.017 42.635897 
" style="fill:none;stroke:#000000;stroke-linecap:square;"/>
   </g>
   <g id="line2d_11">
    <path clip-path="url(#p0bcfb9b817)" d="M 265.676897 52.976 
L 286.357102 52.976 
" style="fill:none;stroke:#000000;stroke-linecap:square;"/>
   </g>
   <g id="text_1">
    <g clip-path="url(#p0bcfb9b817)">
     <!-- $q_{0}$ : $\left|0\right\rangle$ -->
     <defs>
      <path d="M 41.703125 8.203125 
Q 38.09375 3.46875 33.171875 1.015625 
Q 28.265625 -1.421875 22.3125 -1.421875 
Q 14.015625 -1.421875 9.296875 4.171875 
Q 4.59375 9.765625 4.59375 19.578125 
Q 4.59375 27.484375 7.5 34.859375 
Q 10.40625 42.234375 15.828125 48.09375 
Q 19.34375 51.90625 23.90625 53.953125 
Q 28.46875 56 33.5 56 
Q 39.546875 56 43.453125 53.609375 
Q 47.359375 51.21875 49.125 46.390625 
L 50.6875 54.59375 
L 59.71875 54.59375 
L 45.125 -20.609375 
L 36.078125 -20.609375 
z
M 13.921875 20.90625 
Q 13.921875 13.671875 16.9375 9.890625 
Q 19.96875 6.109375 25.6875 6.109375 
Q 34.1875 6.109375 40.1875 14.234375 
Q 46.1875 22.359375 46.1875 33.984375 
Q 46.1875 41.015625 43.078125 44.75 
Q 39.984375 48.484375 34.1875 48.484375 
Q 29.9375 48.484375 26.3125 46.5 
Q 22.703125 44.53125 20.015625 40.71875 
Q 17.1875 36.71875 15.546875 31.34375 
Q 13.921875 25.984375 13.921875 20.90625 
z
" id="DejaVuSans-Oblique-113"/>
      <path d="M 31.78125 66.40625 
Q 24.171875 66.40625 20.328125 58.90625 
Q 16.5 51.421875 16.5 36.375 
Q 16.5 21.390625 20.328125 13.890625 
Q 24.171875 6.390625 31.78125 6.390625 
Q 39.453125 6.390625 43.28125 13.890625 
Q 47.125 21.390625 47.125 36.375 
Q 47.125 51.421875 43.28125 58.90625 
Q 39.453125 66.40625 31.78125 66.40625 
z
M 31.78125 74.21875 
Q 44.046875 74.21875 50.515625 64.515625 
Q 56.984375 54.828125 56.984375 36.375 
Q 56.984375 17.96875 50.515625 8.265625 
Q 44.046875 -1.421875 31.78125 -1.421875 
Q 19.53125 -1.421875 13.0625 8.265625 
Q 6.59375 17.96875 6.59375 36.375 
Q 6.59375 54.828125 13.0625 64.515625 
Q 19.53125 74.21875 31.78125 74.21875 
z
" id="DejaVuSans-48"/>
      <path id="DejaVuSans-32"/>
      <path d="M 11.71875 12.40625 
L 22.015625 12.40625 
L 22.015625 0 
L 11.71875 0 
z
M 11.71875 51.703125 
L 22.015625 51.703125 
L 22.015625 39.3125 
L 11.71875 39.3125 
z
" id="DejaVuSans-58"/>
      <path d="M 21 76.421875 
L 21 -23.578125 
L 12.703125 -23.578125 
L 12.703125 76.421875 
z
" id="DejaVuSans-124"/>
      <path d="M 30.078125 31.34375 
L 16.3125 -13.1875 
L 8.015625 -13.1875 
L 21.78125 31.34375 
L 8.015625 75.875 
L 16.3125 75.875 
z
" id="DejaVuSans-10217"/>
     </defs>
     <g transform="translate(72.0885 56.421)scale(0.13 -0.13)">
      <use transform="translate(0 0.578125)" xlink:href="#DejaVuSans-Oblique-113"/>
      <use transform="translate(63.476562 -15.828125)scale(0.7)" xlink:href="#DejaVuSans-48"/>
      <use transform="translate(110.74707 0.578125)" xlink:href="#DejaVuSans-32"/>
      <use transform="translate(142.53418 0.578125)" xlink:href="#DejaVuSans-58"/>
      <use transform="translate(176.225586 0.578125)" xlink:href="#DejaVuSans-32"/>
      <use transform="translate(208.012695 0.578125)" xlink:href="#DejaVuSans-124"/>
      <use transform="translate(241.704102 0.578125)" xlink:href="#DejaVuSans-48"/>
      <use transform="translate(305.327148 0.578125)" xlink:href="#DejaVuSans-10217"/>
     </g>
    </g>
   </g>
   <g id="text_2">
    <g clip-path="url(#p0bcfb9b817)">
     <!-- $q_{1}$ : $\left|0\right\rangle$ -->
     <defs>
      <path d="M 12.40625 8.296875 
L 28.515625 8.296875 
L 28.515625 63.921875 
L 10.984375 60.40625 
L 10.984375 69.390625 
L 28.421875 72.90625 
L 38.28125 72.90625 
L 38.28125 8.296875 
L 54.390625 8.296875 
L 54.390625 0 
L 12.40625 0 
z
" id="DejaVuSans-49"/>
     </defs>
     <g transform="translate(72.0885 101.872)scale(0.13 -0.13)">
      <use transform="translate(0 0.578125)" xlink:href="#DejaVuSans-Oblique-113"/>
      <use transform="translate(63.476562 -15.828125)scale(0.7)" xlink:href="#DejaVuSans-49"/>
      <use transform="translate(110.74707 0.578125)" xlink:href="#DejaVuSans-32"/>
      <use transform="translate(142.53418 0.578125)" xlink:href="#DejaVuSans-58"/>
      <use transform="translate(176.225586 0.578125)" xlink:href="#DejaVuSans-32"/>
      <use transform="translate(208.012695 0.578125)" xlink:href="#DejaVuSans-124"/>
      <use transform="translate(241.704102 0.578125)" xlink:href="#DejaVuSans-48"/>
      <use transform="translate(305.327148 0.578125)" xlink:href="#DejaVuSans-10217"/>
     </g>
    </g>
   </g>
  </g>
 </g>
 <defs>
  <clipPath id="p0bcfb9b817">
   <rect height="104.5373" width="272.706" x="48.762" y="16.6152"/>
  </clipPath>
 </defs>
</svg>
